<?xml version="1.0" standalone="no"?><!DOCTYPE svg PUBLIC "-//W3C//DTD SVG 1.1//EN" "http://www.w3.org/Graphics/SVG/1.1/DTD/svg11.dtd"><svg t="1765105869657" class="icon" viewBox="0 0 1024 1024" version="1.1" xmlns="http://www.w3.org/2000/svg" p-id="4391" xmlns:xlink="http://www.w3.org/1999/xlink" width="128" height="128"><path d="M894.293333 548.693333l-117.333333-390.4c-5.546667-17.92-22.186667-30.293333-40.96-30.293333H287.573333c-18.773333 0-35.413333 12.373333-40.96 30.293333l-116.906666 390.4c-1.28 3.84-1.706667 8.106667-1.706667 12.373334V853.333333c0 23.466667 19.2 42.666667 42.666667 42.666667h682.666666c23.466667 0 42.666667-19.2 42.666667-42.666667v-292.266666c0-4.266667-0.426667-8.106667-1.706667-12.373334zM319.573333 213.333333h384.853334l89.6 298.666667H618.666667c-11.946667 0-21.333333 9.386667-21.333334 21.333333v42.666667c0 11.946667-9.386667 21.333333-21.333333 21.333333h-128c-11.946667 0-21.333333-9.386667-21.333333-21.333333v-42.666667c0-11.946667-9.386667-21.333333-21.333334-21.333333H229.973333l89.6-298.666667zM810.666667 810.666667H213.333333v-213.333334h106.666667c11.946667 0 21.333333 9.386667 21.333333 21.333334v42.666666c0 11.946667 9.386667 21.333333 21.333334 21.333334h298.666666c11.946667 0 21.333333-9.386667 21.333334-21.333334v-42.666666c0-11.946667 9.386667-21.333333 21.333333-21.333334H810.666667v213.333334z" p-id="4392" fill="#211c12"></path><path d="M384 341.333333c-23.466667 0-42.666667 19.2-42.666667 42.666667s19.2 42.666667 42.666667 42.666667h256c23.466667 0 42.666667-19.2 42.666667-42.666667s-19.2-42.666667-42.666667-42.666667H384z" p-id="4393" fill="#211c12"></path></svg>